<mxfile host="Electron" agent="Mozilla/5.0 (Macintosh; Intel Mac OS X 10_15_7) AppleWebKit/537.36 (KHTML, like Gecko) draw.io/27.0.2 Chrome/134.0.6998.205 Electron/35.3.0 Safari/537.36" version="27.0.2">
  <diagram id="C5RBs43oDa-KdzZeNtuy" name="Page-1">
    <mxGraphModel dx="1371" dy="873" grid="1" gridSize="10" guides="1" tooltips="1" connect="1" arrows="1" fold="1" page="1" pageScale="1" pageWidth="827" pageHeight="1169" math="0" shadow="0">
      <root>
        <mxCell id="WIyWlLk6GJQsqaUBKTNV-0" />
        <mxCell id="WIyWlLk6GJQsqaUBKTNV-1" parent="WIyWlLk6GJQsqaUBKTNV-0" />
        <mxCell id="cNUfc0mjFIy8eJILB4-j-2" style="edgeStyle=orthogonalEdgeStyle;rounded=0;orthogonalLoop=1;jettySize=auto;html=1;" edge="1" parent="WIyWlLk6GJQsqaUBKTNV-1" source="cNUfc0mjFIy8eJILB4-j-0" target="cNUfc0mjFIy8eJILB4-j-1">
          <mxGeometry relative="1" as="geometry" />
        </mxCell>
        <mxCell id="cNUfc0mjFIy8eJILB4-j-0" value="begin" style="rounded=1;whiteSpace=wrap;html=1;" vertex="1" parent="WIyWlLk6GJQsqaUBKTNV-1">
          <mxGeometry x="354" y="30" width="120" height="50" as="geometry" />
        </mxCell>
        <mxCell id="cNUfc0mjFIy8eJILB4-j-3" style="edgeStyle=orthogonalEdgeStyle;rounded=0;orthogonalLoop=1;jettySize=auto;html=1;" edge="1" parent="WIyWlLk6GJQsqaUBKTNV-1" source="cNUfc0mjFIy8eJILB4-j-1">
          <mxGeometry relative="1" as="geometry">
            <mxPoint x="300" y="165" as="targetPoint" />
          </mxGeometry>
        </mxCell>
        <mxCell id="cNUfc0mjFIy8eJILB4-j-11" style="edgeStyle=orthogonalEdgeStyle;rounded=0;orthogonalLoop=1;jettySize=auto;html=1;" edge="1" parent="WIyWlLk6GJQsqaUBKTNV-1" source="cNUfc0mjFIy8eJILB4-j-1" target="cNUfc0mjFIy8eJILB4-j-10">
          <mxGeometry relative="1" as="geometry" />
        </mxCell>
        <mxCell id="cNUfc0mjFIy8eJILB4-j-1" value="if (input.isEmpty())" style="rhombus;whiteSpace=wrap;html=1;" vertex="1" parent="WIyWlLk6GJQsqaUBKTNV-1">
          <mxGeometry x="356" y="110" width="116" height="110" as="geometry" />
        </mxCell>
        <mxCell id="cNUfc0mjFIy8eJILB4-j-6" style="edgeStyle=orthogonalEdgeStyle;rounded=0;orthogonalLoop=1;jettySize=auto;html=1;" edge="1" parent="WIyWlLk6GJQsqaUBKTNV-1" source="cNUfc0mjFIy8eJILB4-j-4" target="cNUfc0mjFIy8eJILB4-j-5">
          <mxGeometry relative="1" as="geometry" />
        </mxCell>
        <mxCell id="cNUfc0mjFIy8eJILB4-j-4" value="return false" style="rounded=0;whiteSpace=wrap;html=1;" vertex="1" parent="WIyWlLk6GJQsqaUBKTNV-1">
          <mxGeometry x="210" y="140" width="90" height="50" as="geometry" />
        </mxCell>
        <mxCell id="cNUfc0mjFIy8eJILB4-j-5" value="end" style="rounded=1;whiteSpace=wrap;html=1;" vertex="1" parent="WIyWlLk6GJQsqaUBKTNV-1">
          <mxGeometry x="110" y="140" width="60" height="50" as="geometry" />
        </mxCell>
        <mxCell id="cNUfc0mjFIy8eJILB4-j-7" value="да" style="text;html=1;align=center;verticalAlign=middle;resizable=0;points=[];autosize=1;strokeColor=none;fillColor=none;" vertex="1" parent="WIyWlLk6GJQsqaUBKTNV-1">
          <mxGeometry x="330" y="130" width="40" height="30" as="geometry" />
        </mxCell>
        <mxCell id="cNUfc0mjFIy8eJILB4-j-8" value="нет" style="text;html=1;align=center;verticalAlign=middle;resizable=0;points=[];autosize=1;strokeColor=none;fillColor=none;" vertex="1" parent="WIyWlLk6GJQsqaUBKTNV-1">
          <mxGeometry x="430" y="208" width="40" height="30" as="geometry" />
        </mxCell>
        <mxCell id="cNUfc0mjFIy8eJILB4-j-14" style="edgeStyle=orthogonalEdgeStyle;rounded=0;orthogonalLoop=1;jettySize=auto;html=1;" edge="1" parent="WIyWlLk6GJQsqaUBKTNV-1" source="cNUfc0mjFIy8eJILB4-j-10" target="cNUfc0mjFIy8eJILB4-j-13">
          <mxGeometry relative="1" as="geometry" />
        </mxCell>
        <mxCell id="cNUfc0mjFIy8eJILB4-j-10" value="int open = 0, close = 0,&lt;div&gt;ops = 0, binOps = 0,&lt;br&gt;args = 0&lt;/div&gt;" style="rounded=0;whiteSpace=wrap;html=1;" vertex="1" parent="WIyWlLk6GJQsqaUBKTNV-1">
          <mxGeometry x="344" y="250" width="140" height="60" as="geometry" />
        </mxCell>
        <mxCell id="cNUfc0mjFIy8eJILB4-j-17" style="edgeStyle=orthogonalEdgeStyle;rounded=0;orthogonalLoop=1;jettySize=auto;html=1;" edge="1" parent="WIyWlLk6GJQsqaUBKTNV-1" source="cNUfc0mjFIy8eJILB4-j-13" target="cNUfc0mjFIy8eJILB4-j-16">
          <mxGeometry relative="1" as="geometry" />
        </mxCell>
        <mxCell id="cNUfc0mjFIy8eJILB4-j-13" value="do&lt;div&gt;(int i = 0,i++)&lt;/div&gt;" style="shape=hexagon;perimeter=hexagonPerimeter2;whiteSpace=wrap;html=1;fixedSize=1;" vertex="1" parent="WIyWlLk6GJQsqaUBKTNV-1">
          <mxGeometry x="321" y="350" width="186" height="70" as="geometry" />
        </mxCell>
        <mxCell id="cNUfc0mjFIy8eJILB4-j-21" style="edgeStyle=orthogonalEdgeStyle;rounded=0;orthogonalLoop=1;jettySize=auto;html=1;entryX=1;entryY=0.5;entryDx=0;entryDy=0;" edge="1" parent="WIyWlLk6GJQsqaUBKTNV-1" source="cNUfc0mjFIy8eJILB4-j-16" target="cNUfc0mjFIy8eJILB4-j-20">
          <mxGeometry relative="1" as="geometry" />
        </mxCell>
        <mxCell id="cNUfc0mjFIy8eJILB4-j-24" style="edgeStyle=orthogonalEdgeStyle;rounded=0;orthogonalLoop=1;jettySize=auto;html=1;" edge="1" parent="WIyWlLk6GJQsqaUBKTNV-1" source="cNUfc0mjFIy8eJILB4-j-16" target="cNUfc0mjFIy8eJILB4-j-22">
          <mxGeometry relative="1" as="geometry" />
        </mxCell>
        <mxCell id="cNUfc0mjFIy8eJILB4-j-16" value="ALL_OPERATORS.&lt;div&gt;contain(input[i])&lt;/div&gt;" style="rhombus;whiteSpace=wrap;html=1;" vertex="1" parent="WIyWlLk6GJQsqaUBKTNV-1">
          <mxGeometry x="326" y="450" width="176" height="80" as="geometry" />
        </mxCell>
        <mxCell id="cNUfc0mjFIy8eJILB4-j-18" value="да" style="text;html=1;align=center;verticalAlign=middle;resizable=0;points=[];autosize=1;strokeColor=none;fillColor=none;" vertex="1" parent="WIyWlLk6GJQsqaUBKTNV-1">
          <mxGeometry x="304" y="460" width="40" height="30" as="geometry" />
        </mxCell>
        <mxCell id="cNUfc0mjFIy8eJILB4-j-19" value="нет" style="text;html=1;align=center;verticalAlign=middle;resizable=0;points=[];autosize=1;strokeColor=none;fillColor=none;" vertex="1" parent="WIyWlLk6GJQsqaUBKTNV-1">
          <mxGeometry x="414" y="520" width="40" height="30" as="geometry" />
        </mxCell>
        <mxCell id="cNUfc0mjFIy8eJILB4-j-52" style="edgeStyle=orthogonalEdgeStyle;rounded=0;orthogonalLoop=1;jettySize=auto;html=1;entryX=0.5;entryY=0;entryDx=0;entryDy=0;" edge="1" parent="WIyWlLk6GJQsqaUBKTNV-1" source="cNUfc0mjFIy8eJILB4-j-20" target="cNUfc0mjFIy8eJILB4-j-22">
          <mxGeometry relative="1" as="geometry">
            <Array as="points">
              <mxPoint x="230" y="560" />
            </Array>
          </mxGeometry>
        </mxCell>
        <mxCell id="cNUfc0mjFIy8eJILB4-j-20" value="ops++" style="rounded=0;whiteSpace=wrap;html=1;" vertex="1" parent="WIyWlLk6GJQsqaUBKTNV-1">
          <mxGeometry x="190" y="470" width="80" height="40" as="geometry" />
        </mxCell>
        <mxCell id="cNUfc0mjFIy8eJILB4-j-27" style="edgeStyle=orthogonalEdgeStyle;rounded=0;orthogonalLoop=1;jettySize=auto;html=1;entryX=1;entryY=0.5;entryDx=0;entryDy=0;" edge="1" parent="WIyWlLk6GJQsqaUBKTNV-1" source="cNUfc0mjFIy8eJILB4-j-22" target="cNUfc0mjFIy8eJILB4-j-26">
          <mxGeometry relative="1" as="geometry" />
        </mxCell>
        <mxCell id="cNUfc0mjFIy8eJILB4-j-36" style="edgeStyle=orthogonalEdgeStyle;rounded=0;orthogonalLoop=1;jettySize=auto;html=1;entryX=0.5;entryY=0;entryDx=0;entryDy=0;" edge="1" parent="WIyWlLk6GJQsqaUBKTNV-1" source="cNUfc0mjFIy8eJILB4-j-22" target="cNUfc0mjFIy8eJILB4-j-32">
          <mxGeometry relative="1" as="geometry" />
        </mxCell>
        <mxCell id="cNUfc0mjFIy8eJILB4-j-22" value="BINARY_OPERANDS.&lt;div&gt;contain(input[i])&lt;/div&gt;" style="rhombus;whiteSpace=wrap;html=1;" vertex="1" parent="WIyWlLk6GJQsqaUBKTNV-1">
          <mxGeometry x="329" y="560" width="169" height="90" as="geometry" />
        </mxCell>
        <mxCell id="cNUfc0mjFIy8eJILB4-j-53" style="edgeStyle=orthogonalEdgeStyle;rounded=0;orthogonalLoop=1;jettySize=auto;html=1;entryX=0.5;entryY=0;entryDx=0;entryDy=0;" edge="1" parent="WIyWlLk6GJQsqaUBKTNV-1" source="cNUfc0mjFIy8eJILB4-j-26" target="cNUfc0mjFIy8eJILB4-j-32">
          <mxGeometry relative="1" as="geometry">
            <Array as="points">
              <mxPoint x="234" y="680" />
            </Array>
          </mxGeometry>
        </mxCell>
        <mxCell id="cNUfc0mjFIy8eJILB4-j-26" value="binOps++" style="rounded=0;whiteSpace=wrap;html=1;" vertex="1" parent="WIyWlLk6GJQsqaUBKTNV-1">
          <mxGeometry x="194" y="585" width="80" height="40" as="geometry" />
        </mxCell>
        <mxCell id="cNUfc0mjFIy8eJILB4-j-28" value="да" style="text;html=1;align=center;verticalAlign=middle;resizable=0;points=[];autosize=1;strokeColor=none;fillColor=none;" vertex="1" parent="WIyWlLk6GJQsqaUBKTNV-1">
          <mxGeometry x="300" y="580" width="40" height="30" as="geometry" />
        </mxCell>
        <mxCell id="cNUfc0mjFIy8eJILB4-j-29" value="нет" style="text;html=1;align=center;verticalAlign=middle;resizable=0;points=[];autosize=1;strokeColor=none;fillColor=none;" vertex="1" parent="WIyWlLk6GJQsqaUBKTNV-1">
          <mxGeometry x="420" y="640" width="40" height="30" as="geometry" />
        </mxCell>
        <mxCell id="cNUfc0mjFIy8eJILB4-j-31" style="edgeStyle=orthogonalEdgeStyle;rounded=0;orthogonalLoop=1;jettySize=auto;html=1;entryX=1;entryY=0.5;entryDx=0;entryDy=0;" edge="1" parent="WIyWlLk6GJQsqaUBKTNV-1" source="cNUfc0mjFIy8eJILB4-j-32" target="cNUfc0mjFIy8eJILB4-j-33">
          <mxGeometry relative="1" as="geometry" />
        </mxCell>
        <mxCell id="cNUfc0mjFIy8eJILB4-j-43" style="edgeStyle=orthogonalEdgeStyle;rounded=0;orthogonalLoop=1;jettySize=auto;html=1;" edge="1" parent="WIyWlLk6GJQsqaUBKTNV-1" source="cNUfc0mjFIy8eJILB4-j-32" target="cNUfc0mjFIy8eJILB4-j-39">
          <mxGeometry relative="1" as="geometry" />
        </mxCell>
        <mxCell id="cNUfc0mjFIy8eJILB4-j-32" value="ARGUMENTS.&lt;div&gt;contain(input[i])&lt;/div&gt;" style="rhombus;whiteSpace=wrap;html=1;" vertex="1" parent="WIyWlLk6GJQsqaUBKTNV-1">
          <mxGeometry x="329" y="680" width="169" height="90" as="geometry" />
        </mxCell>
        <mxCell id="cNUfc0mjFIy8eJILB4-j-54" style="edgeStyle=orthogonalEdgeStyle;rounded=0;orthogonalLoop=1;jettySize=auto;html=1;" edge="1" parent="WIyWlLk6GJQsqaUBKTNV-1" source="cNUfc0mjFIy8eJILB4-j-33" target="cNUfc0mjFIy8eJILB4-j-39">
          <mxGeometry relative="1" as="geometry">
            <Array as="points">
              <mxPoint x="234" y="800" />
            </Array>
          </mxGeometry>
        </mxCell>
        <mxCell id="cNUfc0mjFIy8eJILB4-j-33" value="args&lt;span style=&quot;color: rgba(0, 0, 0, 0); font-family: monospace; font-size: 0px; text-align: start; text-wrap-mode: nowrap;&quot;&gt;%3CmxGraphModel%3E%3Croot%3E%3CmxCell%20id%3D%220%22%2F%3E%3CmxCell%20id%3D%221%22%20parent%3D%220%22%2F%3E%3CmxCell%20id%3D%222%22%20style%3D%22edgeStyle%3DorthogonalEdgeStyle%3Brounded%3D0%3BorthogonalLoop%3D1%3BjettySize%3Dauto%3Bhtml%3D1%3B%22%20edge%3D%221%22%20target%3D%224%22%20parent%3D%221%22%3E%3CmxGeometry%20relative%3D%221%22%20as%3D%22geometry%22%3E%3CmxPoint%20x%3D%22414%22%20y%3D%22530%22%20as%3D%22sourcePoint%22%2F%3E%3C%2FmxGeometry%3E%3C%2FmxCell%3E%3CmxCell%20id%3D%223%22%20style%3D%22edgeStyle%3DorthogonalEdgeStyle%3Brounded%3D0%3BorthogonalLoop%3D1%3BjettySize%3Dauto%3Bhtml%3D1%3BentryX%3D1%3BentryY%3D0.5%3BentryDx%3D0%3BentryDy%3D0%3B%22%20edge%3D%221%22%20source%3D%224%22%20target%3D%225%22%20parent%3D%221%22%3E%3CmxGeometry%20relative%3D%221%22%20as%3D%22geometry%22%2F%3E%3C%2FmxCell%3E%3CmxCell%20id%3D%224%22%20value%3D%22BINARY_OPERANDS.%26lt%3Bdiv%26gt%3Bcontain(input%5Bi%5D)%26lt%3B%2Fdiv%26gt%3B%22%20style%3D%22rhombus%3BwhiteSpace%3Dwrap%3Bhtml%3D1%3B%22%20vertex%3D%221%22%20parent%3D%221%22%3E%3CmxGeometry%20x%3D%22329%22%20y%3D%22560%22%20width%3D%22169%22%20height%3D%2290%22%20as%3D%22geometry%22%2F%3E%3C%2FmxCell%3E%3CmxCell%20id%3D%225%22%20value%3D%22binOps%2B%2B%22%20style%3D%22rounded%3D0%3BwhiteSpace%3Dwrap%3Bhtml%3D1%3B%22%20vertex%3D%221%22%20parent%3D%221%22%3E%3CmxGeometry%20x%3D%22194%22%20y%3D%22585%22%20width%3D%2280%22%20height%3D%2240%22%20as%3D%22geometry%22%2F%3E%3C%2FmxCell%3E%3CmxCell%20id%3D%226%22%20value%3D%22%D0%B4%D0%B0%22%20style%3D%22text%3Bhtml%3D1%3Balign%3Dcenter%3BverticalAlign%3Dmiddle%3Bresizable%3D0%3Bpoints%3D%5B%5D%3Bautosize%3D1%3BstrokeColor%3Dnone%3BfillColor%3Dnone%3B%22%20vertex%3D%221%22%20parent%3D%221%22%3E%3CmxGeometry%20x%3D%22300%22%20y%3D%22580%22%20width%3D%2240%22%20height%3D%2230%22%20as%3D%22geometry%22%2F%3E%3C%2FmxCell%3E%3CmxCell%20id%3D%227%22%20value%3D%22%D0%BD%D0%B5%D1%82%22%20style%3D%22text%3Bhtml%3D1%3Balign%3Dcenter%3BverticalAlign%3Dmiddle%3Bresizable%3D0%3Bpoints%3D%5B%5D%3Bautosize%3D1%3BstrokeColor%3Dnone%3BfillColor%3Dnone%3B%22%20vertex%3D%221%22%20parent%3D%221%22%3E%3CmxGeometry%20x%3D%22420%22%20y%3D%22640%22%20width%3D%2240%22%20height%3D%2230%22%20as%3D%22geometry%22%2F%3E%3C%2FmxCell%3E%3C%2Froot%3E%3C%2FmxGraphModel%3E&lt;/span&gt;++" style="rounded=0;whiteSpace=wrap;html=1;" vertex="1" parent="WIyWlLk6GJQsqaUBKTNV-1">
          <mxGeometry x="194" y="705" width="80" height="40" as="geometry" />
        </mxCell>
        <mxCell id="cNUfc0mjFIy8eJILB4-j-34" value="да" style="text;html=1;align=center;verticalAlign=middle;resizable=0;points=[];autosize=1;strokeColor=none;fillColor=none;" vertex="1" parent="WIyWlLk6GJQsqaUBKTNV-1">
          <mxGeometry x="300" y="700" width="40" height="30" as="geometry" />
        </mxCell>
        <mxCell id="cNUfc0mjFIy8eJILB4-j-35" value="нет" style="text;html=1;align=center;verticalAlign=middle;resizable=0;points=[];autosize=1;strokeColor=none;fillColor=none;" vertex="1" parent="WIyWlLk6GJQsqaUBKTNV-1">
          <mxGeometry x="420" y="760" width="40" height="30" as="geometry" />
        </mxCell>
        <mxCell id="cNUfc0mjFIy8eJILB4-j-38" style="edgeStyle=orthogonalEdgeStyle;rounded=0;orthogonalLoop=1;jettySize=auto;html=1;entryX=1;entryY=0.5;entryDx=0;entryDy=0;" edge="1" parent="WIyWlLk6GJQsqaUBKTNV-1" source="cNUfc0mjFIy8eJILB4-j-39" target="cNUfc0mjFIy8eJILB4-j-40">
          <mxGeometry relative="1" as="geometry" />
        </mxCell>
        <mxCell id="cNUfc0mjFIy8eJILB4-j-51" style="edgeStyle=orthogonalEdgeStyle;rounded=0;orthogonalLoop=1;jettySize=auto;html=1;" edge="1" parent="WIyWlLk6GJQsqaUBKTNV-1" source="cNUfc0mjFIy8eJILB4-j-39" target="cNUfc0mjFIy8eJILB4-j-46">
          <mxGeometry relative="1" as="geometry" />
        </mxCell>
        <mxCell id="cNUfc0mjFIy8eJILB4-j-39" value="imput[i] == &#39;(&#39;" style="rhombus;whiteSpace=wrap;html=1;" vertex="1" parent="WIyWlLk6GJQsqaUBKTNV-1">
          <mxGeometry x="348.5" y="800" width="131" height="60" as="geometry" />
        </mxCell>
        <mxCell id="cNUfc0mjFIy8eJILB4-j-55" style="edgeStyle=orthogonalEdgeStyle;rounded=0;orthogonalLoop=1;jettySize=auto;html=1;" edge="1" parent="WIyWlLk6GJQsqaUBKTNV-1" source="cNUfc0mjFIy8eJILB4-j-40" target="cNUfc0mjFIy8eJILB4-j-46">
          <mxGeometry relative="1" as="geometry">
            <Array as="points">
              <mxPoint x="234" y="890" />
            </Array>
          </mxGeometry>
        </mxCell>
        <mxCell id="cNUfc0mjFIy8eJILB4-j-40" value="open++" style="rounded=0;whiteSpace=wrap;html=1;" vertex="1" parent="WIyWlLk6GJQsqaUBKTNV-1">
          <mxGeometry x="194" y="810" width="80" height="40" as="geometry" />
        </mxCell>
        <mxCell id="cNUfc0mjFIy8eJILB4-j-41" value="да" style="text;html=1;align=center;verticalAlign=middle;resizable=0;points=[];autosize=1;strokeColor=none;fillColor=none;" vertex="1" parent="WIyWlLk6GJQsqaUBKTNV-1">
          <mxGeometry x="316" y="800" width="40" height="30" as="geometry" />
        </mxCell>
        <mxCell id="cNUfc0mjFIy8eJILB4-j-42" value="нет" style="text;html=1;align=center;verticalAlign=middle;resizable=0;points=[];autosize=1;strokeColor=none;fillColor=none;" vertex="1" parent="WIyWlLk6GJQsqaUBKTNV-1">
          <mxGeometry x="420" y="850" width="40" height="30" as="geometry" />
        </mxCell>
        <mxCell id="cNUfc0mjFIy8eJILB4-j-45" style="edgeStyle=orthogonalEdgeStyle;rounded=0;orthogonalLoop=1;jettySize=auto;html=1;entryX=1;entryY=0.5;entryDx=0;entryDy=0;" edge="1" parent="WIyWlLk6GJQsqaUBKTNV-1" source="cNUfc0mjFIy8eJILB4-j-46" target="cNUfc0mjFIy8eJILB4-j-47">
          <mxGeometry relative="1" as="geometry" />
        </mxCell>
        <mxCell id="cNUfc0mjFIy8eJILB4-j-57" style="edgeStyle=orthogonalEdgeStyle;rounded=0;orthogonalLoop=1;jettySize=auto;html=1;" edge="1" parent="WIyWlLk6GJQsqaUBKTNV-1" source="cNUfc0mjFIy8eJILB4-j-46" target="cNUfc0mjFIy8eJILB4-j-56">
          <mxGeometry relative="1" as="geometry" />
        </mxCell>
        <mxCell id="cNUfc0mjFIy8eJILB4-j-46" value="imput[i] == &#39;)&#39;" style="rhombus;whiteSpace=wrap;html=1;" vertex="1" parent="WIyWlLk6GJQsqaUBKTNV-1">
          <mxGeometry x="345" y="890" width="137" height="50" as="geometry" />
        </mxCell>
        <mxCell id="cNUfc0mjFIy8eJILB4-j-75" style="edgeStyle=orthogonalEdgeStyle;rounded=0;orthogonalLoop=1;jettySize=auto;html=1;entryX=0.5;entryY=0;entryDx=0;entryDy=0;" edge="1" parent="WIyWlLk6GJQsqaUBKTNV-1" source="cNUfc0mjFIy8eJILB4-j-47" target="cNUfc0mjFIy8eJILB4-j-56">
          <mxGeometry relative="1" as="geometry">
            <Array as="points">
              <mxPoint x="230" y="960" />
            </Array>
          </mxGeometry>
        </mxCell>
        <mxCell id="cNUfc0mjFIy8eJILB4-j-47" value="close++" style="rounded=0;whiteSpace=wrap;html=1;" vertex="1" parent="WIyWlLk6GJQsqaUBKTNV-1">
          <mxGeometry x="190" y="895" width="80" height="40" as="geometry" />
        </mxCell>
        <mxCell id="cNUfc0mjFIy8eJILB4-j-48" value="да" style="text;html=1;align=center;verticalAlign=middle;resizable=0;points=[];autosize=1;strokeColor=none;fillColor=none;" vertex="1" parent="WIyWlLk6GJQsqaUBKTNV-1">
          <mxGeometry x="340" y="880" width="40" height="30" as="geometry" />
        </mxCell>
        <mxCell id="cNUfc0mjFIy8eJILB4-j-62" value="" style="edgeStyle=orthogonalEdgeStyle;rounded=0;orthogonalLoop=1;jettySize=auto;html=1;" edge="1" parent="WIyWlLk6GJQsqaUBKTNV-1" source="cNUfc0mjFIy8eJILB4-j-56" target="cNUfc0mjFIy8eJILB4-j-60">
          <mxGeometry relative="1" as="geometry" />
        </mxCell>
        <mxCell id="cNUfc0mjFIy8eJILB4-j-65" style="edgeStyle=orthogonalEdgeStyle;rounded=0;orthogonalLoop=1;jettySize=auto;html=1;entryX=0.5;entryY=0;entryDx=0;entryDy=0;" edge="1" parent="WIyWlLk6GJQsqaUBKTNV-1" source="cNUfc0mjFIy8eJILB4-j-56" target="cNUfc0mjFIy8eJILB4-j-64">
          <mxGeometry relative="1" as="geometry" />
        </mxCell>
        <mxCell id="cNUfc0mjFIy8eJILB4-j-56" value="ops &amp;gt; open ||&amp;nbsp;&lt;div&gt;close &amp;gt; open ||&amp;nbsp;&lt;/div&gt;&lt;div&gt;args - binOps &amp;gt; 1&lt;/div&gt;" style="rhombus;whiteSpace=wrap;html=1;" vertex="1" parent="WIyWlLk6GJQsqaUBKTNV-1">
          <mxGeometry x="324.5" y="960" width="179" height="80" as="geometry" />
        </mxCell>
        <mxCell id="cNUfc0mjFIy8eJILB4-j-59" style="edgeStyle=orthogonalEdgeStyle;rounded=0;orthogonalLoop=1;jettySize=auto;html=1;" edge="1" parent="WIyWlLk6GJQsqaUBKTNV-1" source="cNUfc0mjFIy8eJILB4-j-60" target="cNUfc0mjFIy8eJILB4-j-61">
          <mxGeometry relative="1" as="geometry" />
        </mxCell>
        <mxCell id="cNUfc0mjFIy8eJILB4-j-60" value="return false" style="rounded=0;whiteSpace=wrap;html=1;" vertex="1" parent="WIyWlLk6GJQsqaUBKTNV-1">
          <mxGeometry x="184" y="975" width="90" height="50" as="geometry" />
        </mxCell>
        <mxCell id="cNUfc0mjFIy8eJILB4-j-61" value="end" style="rounded=1;whiteSpace=wrap;html=1;" vertex="1" parent="WIyWlLk6GJQsqaUBKTNV-1">
          <mxGeometry x="84" y="975" width="60" height="50" as="geometry" />
        </mxCell>
        <mxCell id="cNUfc0mjFIy8eJILB4-j-70" style="edgeStyle=orthogonalEdgeStyle;rounded=0;orthogonalLoop=1;jettySize=auto;html=1;entryX=1;entryY=0.5;entryDx=0;entryDy=0;" edge="1" parent="WIyWlLk6GJQsqaUBKTNV-1" source="cNUfc0mjFIy8eJILB4-j-64" target="cNUfc0mjFIy8eJILB4-j-69">
          <mxGeometry relative="1" as="geometry" />
        </mxCell>
        <mxCell id="cNUfc0mjFIy8eJILB4-j-74" style="edgeStyle=orthogonalEdgeStyle;rounded=0;orthogonalLoop=1;jettySize=auto;html=1;entryX=1;entryY=0.5;entryDx=0;entryDy=0;" edge="1" parent="WIyWlLk6GJQsqaUBKTNV-1" source="cNUfc0mjFIy8eJILB4-j-64" target="cNUfc0mjFIy8eJILB4-j-13">
          <mxGeometry relative="1" as="geometry">
            <Array as="points">
              <mxPoint x="690" y="1100" />
              <mxPoint x="690" y="385" />
            </Array>
          </mxGeometry>
        </mxCell>
        <mxCell id="cNUfc0mjFIy8eJILB4-j-64" value="if (i &amp;lt; input.size())" style="rhombus;whiteSpace=wrap;html=1;" vertex="1" parent="WIyWlLk6GJQsqaUBKTNV-1">
          <mxGeometry x="330.25" y="1070" width="166.5" height="60" as="geometry" />
        </mxCell>
        <mxCell id="cNUfc0mjFIy8eJILB4-j-66" value="да" style="text;html=1;align=center;verticalAlign=middle;resizable=0;points=[];autosize=1;strokeColor=none;fillColor=none;" vertex="1" parent="WIyWlLk6GJQsqaUBKTNV-1">
          <mxGeometry x="300" y="970" width="40" height="30" as="geometry" />
        </mxCell>
        <mxCell id="cNUfc0mjFIy8eJILB4-j-67" value="нет" style="text;html=1;align=center;verticalAlign=middle;resizable=0;points=[];autosize=1;strokeColor=none;fillColor=none;" vertex="1" parent="WIyWlLk6GJQsqaUBKTNV-1">
          <mxGeometry x="420" y="930" width="40" height="30" as="geometry" />
        </mxCell>
        <mxCell id="cNUfc0mjFIy8eJILB4-j-68" value="нет" style="text;html=1;align=center;verticalAlign=middle;resizable=0;points=[];autosize=1;strokeColor=none;fillColor=none;" vertex="1" parent="WIyWlLk6GJQsqaUBKTNV-1">
          <mxGeometry x="414" y="1025" width="40" height="30" as="geometry" />
        </mxCell>
        <mxCell id="cNUfc0mjFIy8eJILB4-j-73" style="edgeStyle=orthogonalEdgeStyle;rounded=0;orthogonalLoop=1;jettySize=auto;html=1;" edge="1" parent="WIyWlLk6GJQsqaUBKTNV-1" source="cNUfc0mjFIy8eJILB4-j-69" target="cNUfc0mjFIy8eJILB4-j-72">
          <mxGeometry relative="1" as="geometry" />
        </mxCell>
        <mxCell id="cNUfc0mjFIy8eJILB4-j-69" value="return open == close &amp;amp;&amp;amp; open == ops" style="rounded=0;whiteSpace=wrap;html=1;" vertex="1" parent="WIyWlLk6GJQsqaUBKTNV-1">
          <mxGeometry x="154" y="1070" width="120" height="60" as="geometry" />
        </mxCell>
        <mxCell id="cNUfc0mjFIy8eJILB4-j-72" value="end" style="rounded=1;whiteSpace=wrap;html=1;" vertex="1" parent="WIyWlLk6GJQsqaUBKTNV-1">
          <mxGeometry x="50" y="1080" width="80" height="40" as="geometry" />
        </mxCell>
      </root>
    </mxGraphModel>
  </diagram>
</mxfile>
